<?xml version="1.0" encoding="utf-8"?>
<!-- Generator: Adobe Illustrator 26.5.0, SVG Export Plug-In . SVG Version: 6.00 Build 0)  -->
<svg version="1.1" id="Layer_1" xmlns="http://www.w3.org/2000/svg" xmlns:xlink="http://www.w3.org/1999/xlink" x="0px" y="0px"
	 viewBox="0 0 930 1280" style="enable-background:new 0 0 930 1280;" xml:space="preserve">
<style type="text/css">
	.st0{fill:#016699;}
</style>
<g>
	<g transform="translate(0.000000,1280.000000) scale(0.100000,-0.100000)">
		<path class="st0" d="M4335,12789c-1496-104-2843-915-3635-2190c-232-373-414-787-529-1204C-134,8288-26,7117,476,6100
			c191-387,372-660,676-1020c34-41,753-976,1596-2077C3666,1804,4303,981,4336,951c186-170,442-170,628,0c33,30,670,853,1588,2052
			c843,1101,1562,2036,1596,2077c304,360,485,633,676,1020c566,1147,629,2502,174,3695c-353,923-967,1689-1798,2242
			C6375,12586,5336,12858,4335,12789z M4894,10535c224-29,398-81,601-180c553-268,931-756,1062-1374c25-116,27-145,28-366
			c0-267-10-345-70-555c-161-561-586-1032-1130-1253c-201-82-365-120-592-139c-294-25-593,23-878,139c-544,221-969,692-1130,1253
			c-60,210-70,288-70,555c1,221,3,250,28,366c112,527,406,965,842,1252c177,116,437,227,637,271C4431,10550,4689,10562,4894,10535z"
			/>
	</g>
	<g transform="translate(0.000000,1280.000000) scale(0.100000,-0.100000)">
		<path class="st0" d="M4469.3,12418c-178.9-11.9-332.2-28.6-462.2-50.7c-1031.1-174.7-1944.7-766.3-2529.8-1637.6
			c-185.5-276.1-335.2-580.9-444.3-902.3c-101.4-301.2-157.4-572.5-190.2-924.4c-10.1-106.2-10.1-490.2,0-596.4
			c50.7-541.5,174.7-979.8,407.3-1439c517-1021,1487.3-1762.9,2613.9-1998.4c268.4-56.1,489-78.1,784.2-78.1
			c213.5,0,289.8,4.8,474.1,27.4c733.5,90.6,1424.7,393,1989.5,871.3c529,447.3,923.8,1023.4,1146.8,1673.4
			c342.9,998.9,254.6,2108.7-240.3,3034.9c-534.9,1000.7-1480.8,1711-2585.8,1942.4c-144.3,29.8-281.5,50.1-452.6,66.8
			C4890.4,12415.6,4545.7,12423.3,4469.3,12418z M4768.7,10447c485.4-218.9,1012-524.2,1433.7-832.5
			c96.6-70.4,84.7-47.7,100.8-192.6c45.9-428.8,52.5-977.4,17.9-1434.3c-8.3-107.3-31.6-332.2-34.6-334.6
			c-31-23.9-188.5-136-263.6-186.7c-384.1-262.4-828.3-511.7-1248.2-700.7l-126.4-57.3l-70.4,30.4
			c-469.3,204-1045.4,536.1-1483.8,856.4c-96.6,70.4-84.7,47.7-100.8,192.6c-26.8,252.3-39.4,507.5-39.4,817
			c0,321.4,12.5,570.7,42.3,836.7c6.6,57.8,11.9,106.7,11.9,107.9c0,4.2,166.4,124.6,274.3,198.6
			c301.2,206.3,600.5,381.7,954.2,558.8c209.9,105,405.5,195,415.7,191.4C4656.6,10497.1,4709.1,10473.8,4768.7,10447z"/>
	</g>
</g>
</svg>
